<mxfile host="Electron" agent="Mozilla/5.0 (Windows NT 10.0; Win64; x64) AppleWebKit/537.36 (KHTML, like Gecko) draw.io/24.7.17 Chrome/128.0.6613.36 Electron/32.0.1 Safari/537.36" version="24.7.17">
  <diagram name="Page-1" id="LNCCDtigtZWvsQiNLlG0">
    <mxGraphModel dx="2240" dy="1048" grid="1" gridSize="10" guides="1" tooltips="1" connect="1" arrows="1" fold="1" page="1" pageScale="1" pageWidth="827" pageHeight="1169" math="0" shadow="0">
      <root>
        <mxCell id="0" />
        <mxCell id="1" parent="0" />
        <mxCell id="NTerbdWATrHDv0i-hZzJ-1" value="" style="rounded=0;whiteSpace=wrap;html=1;" vertex="1" parent="1">
          <mxGeometry x="90" y="40" width="1050" height="140" as="geometry" />
        </mxCell>
        <mxCell id="NTerbdWATrHDv0i-hZzJ-2" value="logo" style="text;html=1;align=center;verticalAlign=middle;whiteSpace=wrap;rounded=0;" vertex="1" parent="1">
          <mxGeometry x="100" y="50" width="60" height="30" as="geometry" />
        </mxCell>
        <mxCell id="NTerbdWATrHDv0i-hZzJ-3" value="login&lt;span style=&quot;color: rgba(0, 0, 0, 0); font-family: monospace; font-size: 0px; text-align: start; text-wrap: nowrap;&quot;&gt;%3CmxGraphModel%3E%3Croot%3E%3CmxCell%20id%3D%220%22%2F%3E%3CmxCell%20id%3D%221%22%20parent%3D%220%22%2F%3E%3CmxCell%20id%3D%222%22%20value%3D%22logo%22%20style%3D%22text%3Bhtml%3D1%3Balign%3Dcenter%3BverticalAlign%3Dmiddle%3BwhiteSpace%3Dwrap%3Brounded%3D0%3B%22%20vertex%3D%221%22%20parent%3D%221%22%3E%3CmxGeometry%20x%3D%22100%22%20y%3D%2250%22%20width%3D%2260%22%20height%3D%2230%22%20as%3D%22geometry%22%2F%3E%3C%2FmxCell%3E%3C%2Froot%3E%3C%2FmxGraphModel%3E&lt;/span&gt;&lt;span style=&quot;color: rgba(0, 0, 0, 0); font-family: monospace; font-size: 0px; text-align: start; text-wrap: nowrap;&quot;&gt;%3CmxGraphModel%3E%3Croot%3E%3CmxCell%20id%3D%220%22%2F%3E%3CmxCell%20id%3D%221%22%20parent%3D%220%22%2F%3E%3CmxCell%20id%3D%222%22%20value%3D%22logo%22%20style%3D%22text%3Bhtml%3D1%3Balign%3Dcenter%3BverticalAlign%3Dmiddle%3BwhiteSpace%3Dwrap%3Brounded%3D0%3B%22%20vertex%3D%221%22%20parent%3D%221%22%3E%3CmxGeometry%20x%3D%22100%22%20y%3D%2250%22%20width%3D%2260%22%20height%3D%2230%22%20as%3D%22geometry%22%2F%3E%3C%2FmxCell%3E%3C%2Froot%3E%3C%2FmxGraphModel%3E&lt;/span&gt;" style="text;html=1;align=center;verticalAlign=middle;whiteSpace=wrap;rounded=0;" vertex="1" parent="1">
          <mxGeometry x="120" y="130" width="60" height="30" as="geometry" />
        </mxCell>
        <mxCell id="NTerbdWATrHDv0i-hZzJ-4" value="sign in" style="text;html=1;align=center;verticalAlign=middle;whiteSpace=wrap;rounded=0;" vertex="1" parent="1">
          <mxGeometry x="210" y="130" width="60" height="30" as="geometry" />
        </mxCell>
        <mxCell id="NTerbdWATrHDv0i-hZzJ-5" value="home" style="text;html=1;align=center;verticalAlign=middle;whiteSpace=wrap;rounded=0;" vertex="1" parent="1">
          <mxGeometry x="300" y="130" width="60" height="30" as="geometry" />
        </mxCell>
        <mxCell id="NTerbdWATrHDv0i-hZzJ-6" value="listing" style="text;html=1;align=center;verticalAlign=middle;whiteSpace=wrap;rounded=0;" vertex="1" parent="1">
          <mxGeometry x="390" y="130" width="60" height="30" as="geometry" />
        </mxCell>
        <mxCell id="NTerbdWATrHDv0i-hZzJ-7" value="selling property" style="text;html=1;align=center;verticalAlign=middle;whiteSpace=wrap;rounded=0;" vertex="1" parent="1">
          <mxGeometry x="510" y="130" width="60" height="30" as="geometry" />
        </mxCell>
        <mxCell id="NTerbdWATrHDv0i-hZzJ-8" value="renting property" style="text;html=1;align=center;verticalAlign=middle;whiteSpace=wrap;rounded=0;" vertex="1" parent="1">
          <mxGeometry x="650" y="130" width="60" height="30" as="geometry" />
        </mxCell>
        <mxCell id="NTerbdWATrHDv0i-hZzJ-9" value="wish list&amp;nbsp;" style="text;html=1;align=center;verticalAlign=middle;whiteSpace=wrap;rounded=0;" vertex="1" parent="1">
          <mxGeometry x="790" y="130" width="60" height="30" as="geometry" />
        </mxCell>
        <mxCell id="NTerbdWATrHDv0i-hZzJ-10" value="property calculater" style="text;html=1;align=center;verticalAlign=middle;whiteSpace=wrap;rounded=0;" vertex="1" parent="1">
          <mxGeometry x="920" y="130" width="60" height="30" as="geometry" />
        </mxCell>
        <mxCell id="NTerbdWATrHDv0i-hZzJ-11" value="contact us" style="text;html=1;align=center;verticalAlign=middle;whiteSpace=wrap;rounded=0;" vertex="1" parent="1">
          <mxGeometry x="1060" y="130" width="60" height="30" as="geometry" />
        </mxCell>
        <mxCell id="NTerbdWATrHDv0i-hZzJ-12" value="Realhome a real estate listing platform" style="text;html=1;align=center;verticalAlign=middle;whiteSpace=wrap;rounded=0;" vertex="1" parent="1">
          <mxGeometry x="310" y="60" width="630" height="50" as="geometry" />
        </mxCell>
        <mxCell id="NTerbdWATrHDv0i-hZzJ-13" value="" style="rounded=0;whiteSpace=wrap;html=1;" vertex="1" parent="1">
          <mxGeometry x="115" y="1410" width="1050" height="90" as="geometry" />
        </mxCell>
        <mxCell id="NTerbdWATrHDv0i-hZzJ-14" value="footer" style="text;html=1;align=center;verticalAlign=middle;whiteSpace=wrap;rounded=0;" vertex="1" parent="1">
          <mxGeometry x="125" y="1410" width="60" height="30" as="geometry" />
        </mxCell>
        <mxCell id="NTerbdWATrHDv0i-hZzJ-15" value="links to social media&amp;nbsp;&lt;div&gt;&lt;br&gt;&lt;/div&gt;" style="text;html=1;align=center;verticalAlign=middle;whiteSpace=wrap;rounded=0;" vertex="1" parent="1">
          <mxGeometry x="535" y="1470" width="60" height="30" as="geometry" />
        </mxCell>
        <mxCell id="NTerbdWATrHDv0i-hZzJ-28" value="" style="rounded=0;whiteSpace=wrap;html=1;" vertex="1" parent="1">
          <mxGeometry x="470" y="400" width="280" height="350" as="geometry" />
        </mxCell>
        <mxCell id="NTerbdWATrHDv0i-hZzJ-36" value="&lt;h1 style=&quot;margin: 0px; padding: 0px; box-sizing: border-box; font-size: 3rem; font-family: Arial, sans-serif; background-color: rgb(244, 244, 249);&quot;&gt;Find Your Dream Home Today&lt;/h1&gt;&lt;p style=&quot;margin: 0px; padding: 0px; box-sizing: border-box; font-family: Arial, sans-serif; font-size: medium; background-color: rgb(244, 244, 249);&quot;&gt;Professional real estate services to help you buy, sell, or rent properties.&lt;/p&gt;" style="text;html=1;align=center;verticalAlign=middle;whiteSpace=wrap;rounded=0;" vertex="1" parent="1">
          <mxGeometry x="130" y="230" width="980" height="130" as="geometry" />
        </mxCell>
        <mxCell id="NTerbdWATrHDv0i-hZzJ-37" value="picture of agent&lt;div&gt;&lt;br&gt;&lt;/div&gt;" style="text;html=1;align=center;verticalAlign=middle;whiteSpace=wrap;rounded=0;" vertex="1" parent="1">
          <mxGeometry x="570" y="520" width="60" height="30" as="geometry" />
        </mxCell>
        <mxCell id="NTerbdWATrHDv0i-hZzJ-39" value="" style="rounded=0;whiteSpace=wrap;html=1;" vertex="1" parent="1">
          <mxGeometry x="260" y="790" width="720" height="100" as="geometry" />
        </mxCell>
        <mxCell id="NTerbdWATrHDv0i-hZzJ-40" value="services" style="text;html=1;align=center;verticalAlign=middle;whiteSpace=wrap;rounded=0;" vertex="1" parent="1">
          <mxGeometry x="580" y="810" width="100" height="20" as="geometry" />
        </mxCell>
        <mxCell id="NTerbdWATrHDv0i-hZzJ-41" value="" style="rounded=0;whiteSpace=wrap;html=1;" vertex="1" parent="1">
          <mxGeometry x="260" y="910" width="720" height="80" as="geometry" />
        </mxCell>
        <mxCell id="NTerbdWATrHDv0i-hZzJ-42" value="avaiable property" style="text;html=1;align=center;verticalAlign=middle;whiteSpace=wrap;rounded=0;" vertex="1" parent="1">
          <mxGeometry x="600" y="940" width="100" height="30" as="geometry" />
        </mxCell>
        <mxCell id="NTerbdWATrHDv0i-hZzJ-43" value="" style="rounded=0;whiteSpace=wrap;html=1;" vertex="1" parent="1">
          <mxGeometry x="260" y="1020" width="720" height="70" as="geometry" />
        </mxCell>
        <mxCell id="NTerbdWATrHDv0i-hZzJ-44" value="what my clients say" style="text;html=1;align=center;verticalAlign=middle;whiteSpace=wrap;rounded=0;" vertex="1" parent="1">
          <mxGeometry x="600" y="1050" width="60" height="30" as="geometry" />
        </mxCell>
        <mxCell id="NTerbdWATrHDv0i-hZzJ-45" value="" style="rounded=0;whiteSpace=wrap;html=1;" vertex="1" parent="1">
          <mxGeometry x="270" y="1140" width="720" height="70" as="geometry" />
        </mxCell>
        <mxCell id="NTerbdWATrHDv0i-hZzJ-46" value="leave a review" style="text;html=1;align=center;verticalAlign=middle;whiteSpace=wrap;rounded=0;" vertex="1" parent="1">
          <mxGeometry x="610" y="1170" width="60" height="30" as="geometry" />
        </mxCell>
        <mxCell id="NTerbdWATrHDv0i-hZzJ-47" value="" style="rounded=0;whiteSpace=wrap;html=1;" vertex="1" parent="1">
          <mxGeometry x="260" y="1260" width="720" height="70" as="geometry" />
        </mxCell>
        <mxCell id="NTerbdWATrHDv0i-hZzJ-48" value="contact me&amp;nbsp;" style="text;html=1;align=center;verticalAlign=middle;whiteSpace=wrap;rounded=0;" vertex="1" parent="1">
          <mxGeometry x="600" y="1290" width="60" height="30" as="geometry" />
        </mxCell>
      </root>
    </mxGraphModel>
  </diagram>
</mxfile>
